<?xml version="1.0" encoding="iso-8859-1"?>
<!-- Generator: Adobe Illustrator 19.0.0, SVG Export Plug-In . SVG Version: 6.00 Build 0)  -->
<svg version="1.1" id="Layer_1" xmlns="http://www.w3.org/2000/svg" xmlns:xlink="http://www.w3.org/1999/xlink" x="0px" y="0px"
	 viewBox="0 0 512 512" style="enable-background:new 0 0 512 512;" xml:space="preserve">
<g>
	<g>
		<g>
			<path d="M363.249,462.868l-43.576-24.079V401.49c0-2.079-0.796-4.163-2.386-5.752c-1.585-1.59-3.661-2.381-5.745-2.381H200.456
				c-2.081,0-4.16,0.791-5.75,2.381c-1.587,1.59-2.381,3.676-2.381,5.752v37.299l-43.587,24.079
				c-0.425,0.248-0.801,0.589-1.068,1.055c-0.266,0.448-0.399,0.952-0.399,1.446v5.284c0,0.732,0.276,1.464,0.837,2.017
				c0.553,0.563,1.28,0.837,2.015,0.837h211.75c0.732,0,1.459-0.274,2.012-0.837c0.563-0.553,0.837-1.285,0.837-2.017v-5.284
				c0-0.494-0.128-1.001-0.399-1.446C364.058,463.457,363.681,463.117,363.249,462.868z"/>
			<path d="M506.34,44.147c-3.771-3.776-8.704-5.655-13.642-5.655H19.305c-4.941,0-9.879,1.882-13.645,5.655
				C1.882,47.916,0,52.854,0,57.789v306.437c0,4.941,1.879,9.882,5.66,13.652c3.766,3.771,8.701,5.655,13.645,5.655h473.393
				c4.938,0,9.871-1.884,13.642-5.655c3.776-3.771,5.66-8.712,5.66-13.652V57.789C512,52.854,510.116,47.916,506.34,44.147z
				 M256,375.355c-4.713,0-8.535-3.817-8.535-8.53s3.822-8.54,8.535-8.54c4.718,0,8.532,3.827,8.532,8.54
				S260.718,375.355,256,375.355z M478.612,350.144H33.39V71.88h445.222V350.144z"/>
			<path d="M139.953,323.953H104.98c-1.032,0-2.056,0.389-2.842,1.17c-0.791,0.801-1.175,1.82-1.175,2.847v3.046h43v-3.046
				c0-1.027-0.394-2.048-1.185-2.847C142.003,324.342,140.969,323.953,139.953,323.953z"/>
			<path d="M192.443,274.301h-34.97c-1.019,0-2.051,0.389-2.831,1.17c-0.786,0.791-1.172,1.82-1.172,2.847v52.698h42.988v-52.698
				c0-1.027-0.384-2.058-1.172-2.847C194.493,274.691,193.475,274.301,192.443,274.301z"/>
			<path d="M244.948,253.888h-34.972c-1.029,0-2.053,0.384-2.842,1.167c-0.786,0.791-1.172,1.818-1.172,2.847v73.119h42.998v-73.119
				c0-1.029-0.392-2.056-1.175-2.847C247.014,254.275,245.975,253.888,244.948,253.888z"/>
			<path d="M297.454,262.336h-34.972c-1.032,0-2.058,0.379-2.836,1.17c-0.791,0.791-1.18,1.81-1.18,2.847v64.666h43v-64.666
				c0-1.037-0.384-2.058-1.185-2.847C299.505,262.715,298.481,262.336,297.454,262.336z"/>
			<path d="M349.947,229.522H314.98v0.003c-1.037,0-2.063,0.394-2.847,1.172c-0.781,0.791-1.18,1.813-1.18,2.842v97.482h43.016
				v-97.485c0-1.027-0.399-2.051-1.19-2.842C352.005,229.919,350.979,229.522,349.947,229.522z"/>
			<path d="M402.45,188.572h-34.972v-0.003c-1.029,0-2.053,0.389-2.842,1.175c-0.776,0.781-1.17,1.813-1.17,2.836v138.435h42.995
				V192.584c0-1.024-0.384-2.058-1.178-2.836C404.503,188.961,403.471,188.572,402.45,188.572z"/>
			<path d="M79.516,328.102c0.709,0.742,1.7,1.229,2.803,1.257c1.109,0.02,2.127-0.399,2.87-1.116l112.602-106.918l71.117,30.124
				l137.554-107.3l5.212,6.674c0.522,0.666,1.359,1.085,2.276,1.024c0.922-0.061,1.7-0.571,2.132-1.318l22.669-38.595
				c0.543-0.919,0.499-2.109-0.192-3.003c-0.694-0.886-1.846-1.219-2.865-0.919l-42.957,12.588c-0.817,0.243-1.513,0.865-1.8,1.746
				c-0.284,0.881-0.084,1.795,0.435,2.465l5.212,6.684L266.475,232.986l-72.105-30.554L74.125,316.603
				c-0.742,0.714-1.219,1.695-1.252,2.808c-0.013,1.106,0.394,2.125,1.111,2.877L79.516,328.102z"/>
		</g>
	</g>
</g>
<g>
</g>
<g>
</g>
<g>
</g>
<g>
</g>
<g>
</g>
<g>
</g>
<g>
</g>
<g>
</g>
<g>
</g>
<g>
</g>
<g>
</g>
<g>
</g>
<g>
</g>
<g>
</g>
<g>
</g>
</svg>
