<svg width="245" height="234" viewBox="0 0 245 234" fill="none" xmlns="http://www.w3.org/2000/svg">
<path d="M224.655 80.1811H215.816C213.398 80.1811 213.317 78.5978 213.233 77.8099C208.598 34.1378 171.541 0 126.66 0H118.34C73.791 0 36.9508 33.6336 31.8746 76.8422C31.7449 77.949 31.6771 80.1811 29.6411 80.1811H20.3444C14.2427 80.1811 0 86.6018 0 119.027V136.044C0 160.092 14.2427 165.639 20.3444 165.639H49.9224C56.0241 165.639 61.0162 160.647 61.0162 154.545V91.2749C61.0162 85.1732 56.0241 80.1811 49.9224 80.1811C49.9224 80.1811 48.5298 80.059 48.8848 77.5785C53.7656 43.4298 82.9045 16.9668 118.34 16.9668H126.66C161.855 16.9668 191.072 43.0389 196.018 76.8829C196.177 77.9742 196.771 80.1811 195.078 80.1811C188.976 80.1811 183.984 85.1732 183.984 91.2749V154.545C183.984 160.647 188.976 165.639 195.078 165.639H200.632C202.159 165.639 201.899 166.859 201.763 167.474C197.238 187.904 187.079 211.081 164.276 211.081H147.385C145.661 211.081 145.236 209.818 144.908 209.219C142.172 204.22 136.866 200.828 130.765 200.828H115.201C106.299 200.828 99.0813 208.045 99.0813 216.948C99.0813 225.851 106.299 233.067 115.201 233.067H130.765C136.948 233.067 142.317 229.585 145.019 224.474C145.256 224.028 145.449 223.099 147.273 223.099H164.276C179.765 223.099 200.492 215.403 211.278 178.734C212.428 174.827 213.36 170.933 214.12 167.18C214.224 166.663 214.289 165.639 215.901 165.639H224.656C230.757 165.639 245 160.092 245 136.044V119.027C244.999 87.0639 230.757 80.1811 224.655 80.1811Z" fill="white"/>
</svg>
