<svg width="336" height="334" viewBox="0 0 336 334" fill="none" xmlns="http://www.w3.org/2000/svg">
<path d="M335.535 167.745C335.524 75.1017 260.423 0 167.768 0C75.1129 0 0 75.1129 0 167.768C0 251.171 60.86 320.354 140.582 333.343L141.544 333.477V216.254H98.9422V167.745H141.544V130.804C141.332 128.936 141.22 126.766 141.22 124.573C141.22 91.8718 167.734 65.3574 200.435 65.3574C202.013 65.3574 203.579 65.4245 205.134 65.5364L204.933 65.5252C218.346 65.7154 231.324 66.9012 243.988 69.0157L242.489 68.8031V110.085H221.322C220.36 109.951 219.253 109.872 218.134 109.872C204.742 109.872 193.879 120.724 193.879 134.127C193.879 134.888 193.913 135.637 193.98 136.387L193.969 136.286V167.745H240.498L233.058 216.254H193.969V333.477C274.664 320.343 335.524 251.148 335.535 167.745V167.745Z" fill="white"/>
</svg>
