<svg width="271" height="271" viewBox="0 0 271 271" fill="none" xmlns="http://www.w3.org/2000/svg">
<path d="M223.984 63.1465V63.1555C223.984 72.1326 216.705 79.4027 207.737 79.4027C198.769 79.4027 191.49 72.1236 191.49 63.1555C191.49 54.1785 198.769 46.9083 207.737 46.9083C216.705 46.9173 223.975 54.1785 223.984 63.1465V63.1465ZM135.433 180.58C110.497 180.58 90.2854 160.368 90.2854 135.433C90.2854 110.497 110.497 90.2854 135.433 90.2854C160.368 90.2854 180.58 110.497 180.58 135.433V135.442C180.58 160.368 160.377 180.571 135.451 180.571H135.442L135.433 180.58ZM135.433 65.892C97.0227 65.892 65.892 97.0318 65.892 135.433C65.892 173.834 97.0318 204.973 135.433 204.973C173.843 204.973 204.973 173.834 204.973 135.433C204.973 135.433 204.973 135.433 204.973 135.424C204.973 97.0227 173.843 65.883 135.433 65.883C135.433 65.883 135.433 65.883 135.424 65.883L135.433 65.892ZM135.433 24.3844C171.585 24.3844 175.893 24.565 190.171 25.1882C199.229 25.2965 207.845 27.0125 215.82 30.047L215.305 29.8754C227.172 34.4994 236.384 43.7112 240.909 55.2712L241.017 55.5783C243.871 63.0381 245.569 71.663 245.677 80.6671V80.7123C246.318 94.9997 246.463 99.2896 246.463 135.451C246.463 171.612 246.291 175.911 245.632 190.189C245.46 199.256 243.735 207.872 240.71 215.847L240.882 215.323C238.551 221.428 235.101 226.63 230.739 230.911L230.73 230.92C226.459 235.291 221.257 238.741 215.45 240.936L215.16 241.035C207.674 243.889 199.022 245.587 189.981 245.695H189.936C175.558 246.336 171.323 246.481 135.098 246.481C98.8561 246.481 94.6294 246.309 80.2607 245.65C71.1572 245.478 62.5053 243.753 54.4946 240.728L55.0274 240.9C48.9223 238.606 43.7203 235.147 39.4756 230.767L39.4666 230.757C35.0503 226.513 31.5823 221.302 29.4058 215.468L29.3154 215.188C26.4706 207.71 24.7456 199.067 24.574 190.036V189.963C24.0683 175.739 23.8877 171.35 23.8877 135.297C23.8877 99.2263 24.0683 94.8281 24.574 80.4323C24.7456 71.3378 26.4616 62.6949 29.487 54.6932L29.3154 55.2261C31.5462 49.0939 35.0232 43.8738 39.4575 39.6562L39.4756 39.6382C43.7022 35.1948 48.9132 31.7358 54.7565 29.5954L55.0364 29.5051C62.4692 26.6332 71.0579 24.9082 80.0349 24.7547H80.0982C94.4849 24.2489 98.7206 24.0773 134.936 24.0773L135.433 24.3844ZM135.433 0C98.6393 0 94.0514 0.171594 79.6014 0.812813C67.7253 1.06569 56.4634 3.35963 46.0413 7.34241L46.7277 7.11663C37.3352 10.702 29.3335 16.0214 22.7407 22.7226L22.7317 22.7317C16.0034 29.3245 10.693 37.3352 7.26113 46.2761L7.10759 46.7277C3.35059 56.4634 1.05666 67.7344 0.812813 79.4931V79.6014C0.135469 94.0514 0 98.6393 0 135.433C0 172.226 0.171594 176.814 0.812813 191.264C1.06569 203.14 3.35963 214.402 7.34241 224.824L7.11663 224.138C14.3055 242.39 28.4755 256.56 46.2581 263.586L46.7277 263.749C56.4634 267.497 67.7344 269.791 79.4931 270.043H79.6014C94.0514 270.721 98.6393 270.856 135.433 270.856C172.226 270.856 176.814 270.685 191.264 270.043C203.14 269.782 214.402 267.497 224.824 263.514L224.138 263.749C242.39 256.56 256.56 242.39 263.586 224.607L263.749 224.138C267.506 214.402 269.791 203.131 270.043 191.372V191.264C270.721 176.814 270.856 172.226 270.856 135.433C270.856 98.6393 270.685 94.0514 270.043 79.6014C269.782 67.7253 267.497 56.4634 263.514 46.0413L263.749 46.7277C260.154 37.3352 254.844 29.3335 248.134 22.7407L248.125 22.7317C241.532 16.0034 233.521 10.693 224.58 7.26113L224.129 7.10759C214.393 3.35059 203.122 1.05666 191.363 0.812813H191.255C176.805 0.135469 172.217 0 135.424 0H135.433Z" fill="white"/>
</svg>
