<svg width="235" height="270" viewBox="0 0 235 270" fill="none" xmlns="http://www.w3.org/2000/svg">
<path d="M234.742 15.9915V13.7077C234.742 6.16822 228.575 0 221.035 0H13.7084C6.16899 0 0 6.16822 0 13.7077V15.9915C0 23.531 6.16822 29.6992 13.7084 29.6992H19.0053C21.726 29.6992 21.5106 32.2387 21.5106 33.5369C21.5106 48.7635 27.7535 66.3649 32.538 77.6107C42.1335 100.163 63.9792 118.665 81.9117 131.729C85.1851 134.113 84.4 136.327 82.4994 137.85C65.1064 151.783 42.2385 169.591 32.5388 192.389C27.8289 203.457 21.7073 220.684 21.5161 235.742C21.4966 237.287 22.1154 240.299 18.423 240.299H13.7092C6.16977 240.299 0.000778399 246.468 0.000778399 254.007V256.292C0.000778399 263.831 6.16899 270 13.7092 270H221.037C228.576 270 234.744 263.831 234.744 256.292V254.007C234.744 246.468 228.576 240.299 221.037 240.299H218.07C212.629 240.299 213.153 236.225 213.209 234.113C213.588 220.048 209.453 204.051 203.401 192.032C189.939 165.3 168.709 148.298 155.634 138.461C152.797 136.327 152.511 133.686 155.634 131.538C169.115 122.265 189.939 104.7 203.401 77.9667C209.845 65.1686 214.117 47.8587 213.077 33.1754C212.995 31.9985 212.913 29.6992 215.998 29.6992H221.037C228.575 29.6992 234.742 23.5317 234.742 15.9915ZM192.465 72.4608C179.939 97.3342 159.842 115.122 142.361 125.841C141.309 126.487 139.301 128.08 139.301 132.528V137.843C139.301 142.558 141.441 143.593 142.565 144.284C160.045 155.016 179.989 172.763 192.464 197.538C198.227 208.986 201.221 222.827 200.925 233.842C200.865 236.133 201.744 240.3 195.785 240.3H38.8275C33.5804 240.3 33.7942 237.68 33.8066 236.248C33.8976 226.224 37.3537 212.339 43.8025 197.182C54.9994 170.866 78.4945 154.438 94.1355 144.652C94.832 144.216 96.1791 143.434 96.1791 139.271V131.314C96.1791 127.012 94.1145 125.338 93.0254 124.652C77.4024 114.789 54.7366 98.5197 43.8025 72.8184C37.286 57.5032 33.8261 43.4877 33.8051 33.4405C33.8035 32.1237 33.9691 29.6999 36.8841 29.6999H197.469C200.709 29.6999 200.677 32.1486 200.784 33.4537C201.703 44.8379 198.711 60.0552 192.465 72.4608Z" fill="white"/>
<path d="M114.163 152.515L60.7221 219.39C58.9576 221.599 59.8266 223.405 62.6531 223.405H172.088C174.915 223.405 175.785 221.599 174.019 219.39L120.58 152.515C118.815 150.305 115.928 150.305 114.163 152.515Z" fill="white"/>
<path d="M113.731 121.436C115.734 123.432 119.009 123.432 121.01 121.436L147.887 94.626C149.888 92.6298 149.214 90.9958 146.385 90.9958H88.3544C85.5272 90.9958 84.8517 92.6298 86.8525 94.626L113.731 121.436Z" fill="white"/>
</svg>
