<svg width="274" height="251" viewBox="0 0 274 251" fill="none" xmlns="http://www.w3.org/2000/svg">
<path d="M8.89755 250.29H44.518C49.4322 250.29 53.4156 246.307 53.4156 241.392V85.6961C53.4156 80.7814 49.4322 76.7985 44.518 76.7985H8.89755C3.98283 76.7985 0 80.7814 0 85.6961V241.392C0 246.306 3.98283 250.29 8.89755 250.29Z" fill="white"/>
<path d="M8.89755 49.4263H44.518C49.4322 49.4263 53.4156 45.4429 53.4156 40.5287V8.89755C53.4156 3.98333 49.4322 0 44.518 0H8.89755C3.98283 0 0 3.98333 0 8.89755V40.5287C0 45.4429 3.98283 49.4263 8.89755 49.4263Z" fill="white"/>
<path d="M260.598 94.8573C255.592 88.2687 248.211 82.8503 238.452 78.6033C228.693 74.3592 217.921 72.2357 206.135 72.2357C182.209 72.2357 161.936 81.3667 145.315 99.6323C142.008 103.267 139.603 102.472 139.603 97.5573V85.6961C139.603 80.7813 135.62 76.7985 130.705 76.7985H98.8863C93.9715 76.7985 89.9887 80.7813 89.9887 85.6961V241.392C89.9887 246.307 93.972 250.29 98.8863 250.29H134.507C139.421 250.29 143.404 246.307 143.404 241.392V187.245C143.404 164.687 144.766 149.226 147.491 140.862C150.214 132.498 155.253 125.782 162.603 120.713C169.954 115.643 178.254 113.107 187.506 113.107C194.73 113.107 200.908 114.882 206.042 118.432C211.174 121.981 214.882 126.952 217.163 133.354C219.445 139.754 220.585 153.852 220.585 175.651V241.392C220.585 246.306 224.568 250.29 229.482 250.29H265.102C270.017 250.29 274 246.306 274 241.392V153.218C274 137.631 273.017 125.655 271.055 117.291C269.092 108.927 265.606 101.449 260.598 94.8573Z" fill="white"/>
</svg>
