<svg width="303" height="204" viewBox="0 0 303 204" fill="none" xmlns="http://www.w3.org/2000/svg">
<path d="M263.23 91.6523C263.848 87.1469 264.527 83.3203 264.527 78.8148C264.527 35.2414 229.223 0 185.527 0C162.382 0 141.212 9.62812 126.462 26.2922C118.13 21.7867 108.502 19.2562 98.8734 19.2562C68.693 19.2562 43.6352 41.043 39.1297 70.5445C15.4297 82.0242 0 106.403 0 133.312C0 171.763 31.4766 203.178 69.9891 203.178H243.974C276.068 203.178 301.743 177.565 302.422 146.15C302.422 121.154 286.375 99.3672 263.23 91.6523V91.6523ZM243.974 190.341H69.9891C38.5125 190.341 12.8375 164.727 12.8375 133.312C12.8375 110.23 26.2922 89.7391 47.5234 80.7898C49.4367 80.1727 51.35 78.1977 51.35 75.6672C53.2633 50.6711 73.1984 32.0937 98.1945 32.0937C107.823 32.0937 116.155 34.6859 125.166 38.5125C127.758 40.4258 131.584 39.8086 133.498 37.2164C145.718 21.1695 164.974 11.6031 185.527 11.6031C222.126 11.6031 251.689 41.1047 251.689 77.5805C251.689 82.7031 251.072 88.443 249.776 93.6274C248.048 99.3055 252.368 101.342 254.281 101.959C274.834 106.465 288.967 124.363 288.967 145.533C288.967 170.467 269.032 190.341 243.974 190.341V190.341Z" fill="white"/>
<path d="M92.6398 86.9617C99.7375 86.9617 105.539 92.7016 105.539 99.7992C105.539 102.206 107.452 104.12 109.859 104.12C112.266 104.12 114.18 102.206 114.18 99.7992C114.18 87.9492 104.49 78.3211 92.6398 78.3211C80.7281 78.3211 71.1 87.9492 71.1 99.7992C71.1 111.649 80.7898 121.277 92.6398 121.277C99.7375 121.277 105.539 127.017 105.539 134.115C105.539 141.213 99.7375 146.952 92.6398 146.952C85.5422 146.952 79.7406 141.213 79.7406 134.115C79.7406 131.708 77.8273 129.795 75.4203 129.795C73.0133 129.795 71.1 131.708 71.1 134.115C71.1 145.965 80.7898 155.593 92.6398 155.593C104.552 155.593 114.18 145.965 114.18 134.115C114.18 122.265 104.49 112.698 92.6398 112.698C85.5422 112.698 79.7406 106.959 79.7406 99.8609C79.7406 92.7633 85.5422 86.9617 92.6398 86.9617V86.9617Z" fill="white"/>
<path d="M163.555 86.9617C165.962 86.9617 167.875 85.0484 167.875 82.6414C167.875 80.2344 165.962 78.3211 163.555 78.3211H128.622C126.215 78.3211 124.302 80.2344 124.302 82.6414V151.396C124.302 153.803 126.215 155.716 128.622 155.716H163.555C165.962 155.716 167.875 153.803 167.875 151.396C167.875 148.989 165.962 147.076 163.555 147.076H132.942V121.339H163.555C165.962 121.339 167.875 119.426 167.875 117.019C167.875 114.612 165.962 112.698 163.555 112.698H132.942V86.9617H163.555Z" fill="white"/>
<path d="M202.252 78.3211C194.229 78.3211 186.761 82.518 181.206 90.1711C176.022 97.3922 173.121 106.897 173.121 117.019C173.121 127.141 175.96 136.645 181.206 143.866C186.699 151.52 194.167 155.716 202.252 155.716C210.338 155.716 217.744 151.52 223.298 143.866C228.483 136.645 231.384 127.141 231.384 117.019C231.384 106.897 228.545 97.3922 223.298 90.1711C217.744 82.518 210.276 78.3211 202.252 78.3211ZM202.252 147.014C190.958 147.014 181.823 133.559 181.823 116.957C181.823 100.416 191.02 86.9 202.252 86.9C213.547 86.9 222.681 100.355 222.681 116.957C222.681 133.559 213.547 147.014 202.252 147.014Z" fill="white"/>
</svg>
