<svg width="225" height="220" viewBox="0 0 225 220" fill="none" xmlns="http://www.w3.org/2000/svg">
<path d="M48.375 107.5L60.4688 99.4375L80.625 76.5937L92.7188 88.6875L104.813 76.5937L103.469 75.25C106.156 68.5312 107.5 61.8125 107.5 53.75C107.5 24.1875 83.3125 0 53.75 0C45.6875 0 38.9688 1.34375 32.25 4.03125L71.2188 43L43 71.2188L4.03125 32.25C1.34375 38.9688 0 45.6875 0 53.75C0 81.9687 21.5 103.469 48.375 107.5V107.5Z" fill="white"/>
<path d="M148.125 115L136.031 127.094L148.125 139.188L132 155.312L189.781 213.094C197.844 221.156 209.937 221.156 218 213.094C226.062 205.031 226.062 192.937 218 184.875L148.125 115ZM200.531 206.375C195.156 206.375 189.781 202.344 189.781 195.625C189.781 190.25 193.812 184.875 200.531 184.875C207.25 184.875 211.281 188.906 211.281 195.625C211.281 202.344 207.25 206.375 200.531 206.375Z" fill="white"/>
<path d="M107.828 149.781L119.922 139.031L107.828 126.938L184.422 50.3438L200.547 44.9688L215.328 15.4062L205.922 6L175.016 19.4375L168.297 35.5625L93.0469 112.156L80.9531 100.062L70.2031 112.156C70.2031 112.156 80.9531 120.219 68.8594 132.312C62.1406 139.031 51.3906 130.969 31.2344 151.125C24.5156 157.844 3.01563 179.344 3.01563 179.344C3.01563 179.344 -5.04688 192.781 11.0781 208.906C27.2031 225.031 40.6406 216.969 40.6406 216.969C40.6406 216.969 62.1406 195.469 68.8594 188.75C87.6719 169.937 80.9531 157.844 86.3281 152.469C98.4219 140.375 107.828 149.781 107.828 149.781V149.781ZM66.1719 144.406L75.5781 153.812L24.5156 204.875L15.1094 195.469L66.1719 144.406Z" fill="white"/>
</svg>
