<svg width="185" height="151" viewBox="0 0 185 151" fill="none" xmlns="http://www.w3.org/2000/svg">
<path fill-rule="evenodd" clip-rule="evenodd" d="M14.4531 0C6.475 0 0 6.475 0 14.4531V112.734C0 120.712 6.475 127.188 14.4531 127.188H57.8125C68.1725 127.188 74.8672 129.558 78.7291 132.367C82.3944 135.027 83.8281 138.264 83.8281 141.641C83.8281 143.941 84.7418 146.146 86.3681 147.773C87.9943 149.399 90.2001 150.312 92.5 150.312C94.7999 150.312 97.0056 149.399 98.6319 147.773C100.258 146.146 101.172 143.941 101.172 141.641C101.172 138.264 102.606 135.027 106.271 132.367C110.133 129.558 116.827 127.188 127.188 127.188H170.547C178.525 127.188 185 120.712 185 112.734V14.4531C185 6.475 178.525 0 170.547 0H127.188C113.844 0 102.837 4.09312 95.1362 11.5625C94.1997 12.4875 93.3209 13.4241 92.5 14.4069C91.6727 13.4123 90.7927 12.4628 89.8637 11.5625C82.1631 4.09312 71.1556 0 57.8125 0H14.4531ZM101.172 115.243C108.225 111.671 117.036 109.844 127.188 109.844H167.656V17.3438H127.188C117.406 17.3438 111.069 20.2691 107.208 24.0153C103.334 27.7731 101.172 33.115 101.172 39.5091V115.243V115.243ZM83.8281 115.243V39.5091C83.8281 33.115 81.6659 27.7731 77.7925 24.0153C73.9306 20.2691 67.5944 17.3438 57.8125 17.3438H17.3438V109.844H57.8125C67.9644 109.844 76.775 111.671 83.8281 115.243Z" fill="white"/>
</svg>
