<svg width="262" height="262" viewBox="0 0 262 262" fill="none" xmlns="http://www.w3.org/2000/svg">
<path d="M135.053 0C30.58 0 -14.1238 120.848 3.88875 162.44C17.3163 193.389 46.7912 163.75 58.5812 178.815C89.3662 219.098 24.03 241.204 60.055 255.45C102.466 272.808 261.959 262 261.959 115.771C261.959 71.7225 240.016 0 135.053 0ZM73.155 147.375C59.8094 147.097 49.0837 136.207 49.0837 122.812C49.0837 109.254 60.0877 98.25 73.6462 98.25C87.2047 98.25 98.2087 109.238 98.2087 122.812C98.2087 136.371 87.2047 147.375 73.6462 147.375C73.4661 147.375 73.3024 147.375 73.1222 147.375H73.155ZM98.2087 57.3125C98.2087 43.754 109.213 32.75 122.771 32.75C136.33 32.75 147.334 43.754 147.334 57.3125C147.334 70.871 136.33 81.875 122.771 81.875C122.591 81.875 122.427 81.875 122.247 81.875C108.918 81.5966 98.2087 70.7073 98.2087 57.3125ZM138.655 229.25C125.309 228.972 114.584 218.082 114.584 204.688C114.584 191.129 125.588 180.125 139.146 180.125C152.705 180.125 163.709 191.113 163.709 204.688C163.709 218.246 152.705 229.25 139.146 229.25C138.966 229.25 138.802 229.25 138.622 229.25H138.655ZM204.155 180.125C190.809 179.847 180.084 168.957 180.084 155.562C180.084 142.004 191.088 131 204.646 131C218.205 131 229.209 141.988 229.209 155.562C229.209 169.121 218.205 180.125 204.646 180.125C204.466 180.125 204.302 180.125 204.122 180.125H204.155ZM204.155 98.25C190.809 97.9716 180.084 87.0823 180.084 73.6875C180.084 60.129 191.088 49.125 204.646 49.125C218.205 49.125 229.209 60.1126 229.209 73.6875C229.209 87.246 218.205 98.25 204.646 98.25C204.466 98.25 204.302 98.25 204.122 98.25H204.155Z" fill="white"/>
</svg>
