<svg width="246" height="246" viewBox="0 0 246 246" fill="none" xmlns="http://www.w3.org/2000/svg">
<path d="M123 0C55.0689 0 0 55.0689 0 123C0 190.931 55.0689 246 123 246C190.931 246 246 190.931 246 123C246 55.0689 190.931 0 123 0ZM200.968 70.1484H178.546C175.968 59.3316 172.625 49.3859 168.655 40.5929C176.239 44.8095 183.284 50.1047 189.59 56.4104C193.851 60.6722 197.649 65.2736 200.968 70.1484ZM217.172 123C217.172 131.22 216.119 139.277 214.09 147.023H183.324C184.093 139.253 184.5 131.222 184.5 123C184.5 114.778 184.093 106.747 183.324 98.9766H214.09C216.119 106.723 217.172 114.78 217.172 123ZM123 217.172C120.502 217.172 112.887 212.261 105.298 197.082C102.154 190.794 99.4561 183.632 97.2488 175.852H148.751C146.543 183.631 143.846 190.794 140.702 197.082C133.113 212.261 125.498 217.172 123 217.172ZM91.6797 147.023C90.7923 139.217 90.3281 131.154 90.3281 123C90.3281 114.846 90.7923 106.783 91.6797 98.9766H154.32C155.208 106.783 155.672 114.846 155.672 123C155.672 131.154 155.208 139.217 154.32 147.023H91.6797ZM28.8281 123C28.8281 114.78 29.8808 106.723 31.9099 98.9766H62.6762C61.907 106.747 61.5 114.778 61.5 123C61.5 131.222 61.907 139.253 62.6762 147.023H31.9099C29.8808 139.277 28.8281 131.22 28.8281 123ZM123 28.8281C125.498 28.8281 133.113 33.739 140.702 48.918C143.846 55.2059 146.544 62.3682 148.751 70.1484H97.2488C99.4561 62.3687 102.153 55.2059 105.298 48.918C112.887 33.739 120.502 28.8281 123 28.8281ZM77.3454 40.5929C73.3748 49.3859 70.0317 59.3312 67.454 70.1484H45.0319C48.3515 65.2736 52.1486 60.6722 56.4104 56.4104C62.7161 50.1047 69.7607 44.8095 77.3454 40.5929ZM45.0319 175.852H67.454C70.0317 186.668 73.3753 196.614 77.3454 205.407C69.7607 201.191 62.7156 195.895 56.4104 189.59C52.1486 185.328 48.351 180.726 45.0319 175.852ZM168.655 205.407C172.625 196.614 175.968 186.669 178.546 175.852H200.968C197.649 180.726 193.851 185.328 189.59 189.59C183.284 195.895 176.239 201.191 168.655 205.407Z" fill="white"/>
</svg>
